# xmcd
#
# Track frame offsets:
#	150
#	14500
#	31980
#	44980
#	58720
#	74930
#	89380
#	106780
#	123390
#	138530
#	156570
#	169410
#	188960
#	205220
#	224980
#
# Disc length: 3209
#
# Revision: 1
# Processed by: cddbd v1.5.2PL0 Copyright (c) Steve Scherf et al.
# Submitted via: kJams Pro 1.0b91
#
DISCID=fa0c870f
DTITLE=Unknown Artist - SC 8703
DYEAR=2015
DGENRE=Karaoke
TTITLE0=George Strait - Let's Fall To Pieces Together
TTITLE1=George Strait - The Chill Of An Early Fall
TTITLE2=George Strait - Ace In The Hole
TTITLE3=George Strait - Famous Last Words Of A Fool
TTITLE4=George Strait - Check Yes Or No
TTITLE5=George Strait - Fool Hearted Memory
TTITLE6=George Strait - Famous Last Words Of A Fool
TTITLE7=George Strait - What's Going On In Your World
TTITLE8=George Strait - Today My World Slipped Away
TTITLE9=George Strait - So Much Like My Dad
TTITLE10=George Strait - The Fireman
TTITLE11=George Strait - Go On
TTITLE12=George Strait - The Best Day
TTITLE13=George Strait - One Night At A Time
TTITLE14=George Strait - You Can't Make A Heart Love Somebody
EXTD=
EXTT0=
EXTT1=
EXTT2=
EXTT3=
EXTT4=
EXTT5=
EXTT6=
EXTT7=
EXTT8=
EXTT9=
EXTT10=
EXTT11=
EXTT12=
EXTT13=
EXTT14=
PLAYORDER=
